<svg width="160" height="50" viewBox="0 0 160 50" fill="none" xmlns="http://www.w3.org/2000/svg">
<rect width="160" height="50" rx="8" fill="#391484"/>
<path fill-rule="evenodd" clip-rule="evenodd" d="M72.4304 10.9076C72.2831 11.0506 72.1054 11.1221 71.8974 11.1221C71.6808 11.1221 71.5009 11.0506 71.3579 10.9076C71.2149 10.7646 71.1434 10.5848 71.1434 10.3681C71.1434 10.1601 71.2149 9.9868 71.3579 9.84814C71.5009 9.70947 71.6808 9.64014 71.8974 9.64014C72.1054 9.64014 72.2831 9.70947 72.4304 9.84814C72.5778 9.9868 72.6514 10.1601 72.6514 10.3681C72.6514 10.5848 72.5778 10.7646 72.4304 10.9076ZM50.875 19.1561C51.6637 19.1561 52.2963 19.0131 52.773 18.7271C53.2497 18.4411 53.6527 18.0338 53.982 17.5051L54.073 19.0001H55.074V14.1381H51.33V14.9961H53.956C53.8867 15.9841 53.605 16.762 53.111 17.3296C52.617 17.8973 51.8847 18.1811 50.914 18.1811C50.2813 18.1811 49.7267 18.0316 49.25 17.7326C48.7733 17.4336 48.4007 17.0068 48.132 16.4521C47.8633 15.8975 47.729 15.2345 47.729 14.4631C47.729 13.6918 47.8655 13.0288 48.1385 12.4741C48.4115 11.9195 48.795 11.4926 49.289 11.1936C49.783 10.8946 50.3637 10.7451 51.031 10.7451C51.7417 10.7451 52.3245 10.9055 52.7795 11.2261C53.2345 11.5468 53.5227 11.9801 53.644 12.5261H54.905C54.7057 11.6595 54.2658 10.9791 53.5855 10.4851C52.9052 9.99114 52.0537 9.74414 51.031 9.74414C50.1297 9.74414 49.3475 9.94347 48.6845 10.3421C48.0215 10.7408 47.5102 11.2955 47.1505 12.0061C46.7908 12.7168 46.611 13.5358 46.611 14.4631C46.611 15.3905 46.7887 16.2073 47.144 16.9136C47.4993 17.62 47.9977 18.1703 48.639 18.5646C49.2803 18.959 50.0257 19.1561 50.875 19.1561ZM59.3481 19.1561C60.1108 19.1561 60.7369 18.959 61.2266 18.5646C61.7163 18.1703 62.0478 17.6741 62.2211 17.0761H61.1421C61.0034 17.4315 60.7824 17.7131 60.4791 17.9211C60.1758 18.1291 59.7988 18.2331 59.3481 18.2331C59.0014 18.2331 58.6743 18.1508 58.3666 17.9861C58.0589 17.8215 57.8033 17.5766 57.5996 17.2516C57.3959 16.9266 57.2811 16.5171 57.2551 16.0231H62.3901C62.3901 15.9018 62.3923 15.7935 62.3966 15.6981C62.4009 15.6028 62.4031 15.5075 62.4031 15.4121C62.4031 14.8835 62.2818 14.3895 62.0391 13.9301C61.7964 13.4708 61.4476 13.1003 60.9926 12.8186C60.5376 12.537 59.9981 12.3961 59.3741 12.3961C58.7414 12.3961 58.1846 12.537 57.7036 12.8186C57.2226 13.1003 56.8478 13.4946 56.5791 14.0016C56.3104 14.5086 56.1761 15.1001 56.1761 15.7761C56.1761 16.4608 56.3126 17.0545 56.5856 17.5571C56.8586 18.0598 57.2334 18.452 57.7101 18.7336C58.1868 19.0153 58.7328 19.1561 59.3481 19.1561ZM57.2681 15.1781H61.3241C61.2981 14.5975 61.0988 14.1425 60.7261 13.8131C60.3534 13.4838 59.8941 13.3191 59.3481 13.3191C58.8281 13.3191 58.3666 13.4773 57.9636 13.7936C57.5606 14.11 57.3288 14.5715 57.2681 15.1781ZM66.8722 19.0001V18.0641H66.1962C65.7802 18.0641 65.4899 17.9926 65.3252 17.8496C65.1606 17.7066 65.0782 17.4315 65.0782 17.0241V13.4751H66.9762V12.5521H65.0782V11.0051H64.1292L63.9862 12.5521H62.8682V13.4751H63.9862V17.0241C63.9862 17.7695 64.1552 18.2851 64.4932 18.5711C64.8312 18.8571 65.2949 19.0001 65.8842 19.0001H66.8722ZM72.4434 19.0001V12.5521H71.3514V19.0001H72.4434ZM77.5886 18.0641V19.0001H76.6006C76.0112 19.0001 75.5476 18.8571 75.2096 18.5711C74.8716 18.2851 74.7026 17.7695 74.7026 17.0241V13.4751H73.5846V12.5521H74.7026L74.8456 11.0051H75.7946V12.5521H77.6926V13.4751H75.7946V17.0241C75.7946 17.4315 75.8769 17.7066 76.0416 17.8496C76.2062 17.9926 76.4966 18.0641 76.9126 18.0641H77.5886ZM84.8888 19.1561C85.4954 19.1561 86.0436 19.0175 86.5333 18.7401C87.0229 18.4628 87.4108 18.0706 87.6968 17.5636C87.9828 17.0566 88.1258 16.4608 88.1258 15.7761C88.1258 15.0915 87.9849 14.4956 87.7033 13.9886C87.4216 13.4816 87.0381 13.0895 86.5528 12.8121C86.0674 12.5348 85.5214 12.3961 84.9148 12.3961C84.3081 12.3961 83.7599 12.5348 83.2703 12.8121C82.7806 13.0895 82.3928 13.4816 82.1068 13.9886C81.8208 14.4956 81.6778 15.0915 81.6778 15.7761C81.6778 16.4608 81.8186 17.0566 82.1003 17.5636C82.3819 18.0706 82.7654 18.4628 83.2508 18.7401C83.7361 19.0175 84.2821 19.1561 84.8888 19.1561ZM83.8683 17.9471C84.1846 18.1291 84.5248 18.2201 84.8888 18.2201C85.2614 18.2201 85.6081 18.1291 85.9288 17.9471C86.2494 17.7651 86.5094 17.4921 86.7088 17.1281C86.9081 16.7641 87.0078 16.3135 87.0078 15.7761C87.0078 15.2388 86.9103 14.7881 86.7153 14.4241C86.5203 14.0601 86.2624 13.7871 85.9418 13.6051C85.6211 13.4231 85.2788 13.3321 84.9148 13.3321C84.5421 13.3321 84.1954 13.4231 83.8748 13.6051C83.5541 13.7871 83.2941 14.0601 83.0948 14.4241C82.8954 14.7881 82.7958 15.2388 82.7958 15.7761C82.7958 16.3135 82.8954 16.7641 83.0948 17.1281C83.2941 17.4921 83.5519 17.7651 83.8683 17.9471ZM90.4499 19.0001V15.6591C90.4499 14.9138 90.6341 14.3396 91.0024 13.9366C91.3707 13.5336 91.8322 13.3321 92.3869 13.3321C93.4962 13.3321 94.0509 14.0038 94.0509 15.3471V19.0001H95.1429V15.2301C95.1429 14.2681 94.9154 13.5553 94.4604 13.0916C94.0054 12.628 93.3966 12.3961 92.6339 12.3961C92.1399 12.3961 91.6979 12.5131 91.3079 12.7471C90.9179 12.9811 90.6189 13.3018 90.4109 13.7091L90.3459 12.5521H89.3579V19.0001H90.4499ZM89.8959 39.0001V26.7601H88.0939V39.0001H89.8959ZM54.721 38.6941C54.1203 39.0341 53.3383 39.2041 52.375 39.2041C51.253 39.2041 50.2727 38.9491 49.434 38.4391C48.5953 37.9291 47.9437 37.2151 47.479 36.2971C47.0143 35.3791 46.782 34.3081 46.782 33.0841C46.782 31.8715 47.02 30.8005 47.496 29.8711C47.972 28.9418 48.6492 28.2136 49.5275 27.6866C50.4058 27.1596 51.4457 26.8961 52.647 26.8961C54.007 26.8961 55.1403 27.2248 56.047 27.8821C56.9537 28.5395 57.543 29.4461 57.815 30.6021H55.775C55.5937 29.9675 55.2367 29.4688 54.704 29.1061C54.1713 28.7435 53.4857 28.5621 52.647 28.5621C51.4003 28.5621 50.42 28.9645 49.706 29.7691C48.992 30.5738 48.635 31.6845 48.635 33.1011C48.635 34.5178 48.9863 35.6228 49.689 36.4161C50.3917 37.2095 51.3267 37.6061 52.494 37.6061C53.6727 37.6061 54.5595 37.2718 55.1545 36.6031C55.7495 35.9345 56.098 35.0448 56.2 33.9341H52.97V32.5401H58.019V39.0001H56.37L56.217 37.2491C55.8203 37.8725 55.3217 38.3541 54.721 38.6941ZM65.8862 38.6516C65.2402 39.02 64.5149 39.2041 63.7102 39.2041C62.9056 39.2041 62.1831 39.02 61.5427 38.6516C60.9024 38.2833 60.3952 37.7676 60.0212 37.1046C59.6472 36.4416 59.4602 35.6681 59.4602 34.7841C59.4602 33.9001 59.6501 33.1266 60.0297 32.4636C60.4094 31.8006 60.9222 31.285 61.5682 30.9166C62.2142 30.5483 62.9339 30.3641 63.7272 30.3641C64.5319 30.3641 65.2544 30.5483 65.8947 30.9166C66.5351 31.285 67.0451 31.8006 67.4247 32.4636C67.8044 33.1266 67.9942 33.9001 67.9942 34.7841C67.9942 35.6681 67.8044 36.4416 67.4247 37.1046C67.0451 37.7676 66.5322 38.2833 65.8862 38.6516ZM63.7102 37.6571C63.2796 37.6571 62.8829 37.5495 62.5202 37.3341C62.1576 37.1188 61.8629 36.7986 61.6362 36.3736C61.4096 35.9486 61.2962 35.4188 61.2962 34.7841C61.2962 34.1495 61.4096 33.6196 61.6362 33.1946C61.8629 32.7696 62.1604 32.4495 62.5287 32.2341C62.8971 32.0188 63.2966 31.9111 63.7272 31.9111C64.1579 31.9111 64.5574 32.0188 64.9257 32.2341C65.2941 32.4495 65.5887 32.7696 65.8097 33.1946C66.0307 33.6196 66.1412 34.1495 66.1412 34.7841C66.1412 35.4188 66.0279 35.9486 65.8012 36.3736C65.5746 36.7986 65.2771 37.1188 64.9087 37.3341C64.5404 37.5495 64.1409 37.6571 63.7102 37.6571ZM75.6914 38.6516C75.0454 39.02 74.3201 39.2041 73.5154 39.2041C72.7108 39.2041 71.9883 39.02 71.3479 38.6516C70.7076 38.2833 70.2004 37.7676 69.8264 37.1046C69.4524 36.4416 69.2654 35.6681 69.2654 34.7841C69.2654 33.9001 69.4553 33.1266 69.8349 32.4636C70.2146 31.8006 70.7274 31.285 71.3734 30.9166C72.0194 30.5483 72.7391 30.3641 73.5324 30.3641C74.3371 30.3641 75.0596 30.5483 75.6999 30.9166C76.3403 31.285 76.8503 31.8006 77.2299 32.4636C77.6096 33.1266 77.7994 33.9001 77.7994 34.7841C77.7994 35.6681 77.6096 36.4416 77.2299 37.1046C76.8503 37.7676 76.3374 38.2833 75.6914 38.6516ZM73.5154 37.6571C73.0848 37.6571 72.6881 37.5495 72.3254 37.3341C71.9628 37.1188 71.6681 36.7986 71.4414 36.3736C71.2148 35.9486 71.1014 35.4188 71.1014 34.7841C71.1014 34.1495 71.2148 33.6196 71.4414 33.1946C71.6681 32.7696 71.9656 32.4495 72.3339 32.2341C72.7023 32.0188 73.1018 31.9111 73.5324 31.9111C73.9631 31.9111 74.3626 32.0188 74.7309 32.2341C75.0993 32.4495 75.3939 32.7696 75.6149 33.1946C75.8359 33.6196 75.9464 34.1495 75.9464 34.7841C75.9464 35.4188 75.8331 35.9486 75.6064 36.3736C75.3798 36.7986 75.0823 37.1188 74.7139 37.3341C74.3456 37.5495 73.9461 37.6571 73.5154 37.6571ZM84.5362 42.5276C83.9752 42.8053 83.2583 42.9441 82.3857 42.9441C81.207 42.9441 80.2522 42.7203 79.5212 42.2726C78.7902 41.825 78.4247 41.1478 78.4247 40.2411C78.4247 39.8898 78.5182 39.5413 78.7052 39.1956C78.8922 38.85 79.1897 38.5241 79.5977 38.2181C79.3597 38.1161 79.1528 38.0056 78.9772 37.8866C78.8015 37.7676 78.6457 37.6458 78.5097 37.5211V37.1131L79.9717 35.6171C79.3143 35.0505 78.9857 34.3081 78.9857 33.3901C78.9857 32.8348 79.1188 32.3276 79.3852 31.8686C79.6515 31.4096 80.0397 31.0441 80.5497 30.7721C81.0597 30.5001 81.6717 30.3641 82.3857 30.3641C82.8617 30.3641 83.3037 30.4321 83.7117 30.5681H86.8567V31.7581L85.3607 31.8431C85.6327 32.3078 85.7687 32.8235 85.7687 33.3901C85.7687 33.9568 85.6355 34.4668 85.3692 34.9201C85.1028 35.3735 84.7175 35.7361 84.2132 36.0081C83.7088 36.2801 83.0997 36.4161 82.3857 36.4161C81.9437 36.4161 81.5357 36.3651 81.1617 36.2631L80.4307 36.9771C80.5553 37.0565 80.7083 37.1245 80.8897 37.1811C81.071 37.2378 81.326 37.2888 81.6547 37.3341C81.9833 37.3795 82.431 37.4248 82.9977 37.4701C84.1197 37.5721 84.93 37.8413 85.4287 38.2776C85.9273 38.714 86.1767 39.2948 86.1767 40.0201C86.1767 40.5188 86.0435 40.992 85.7772 41.4396C85.5108 41.8873 85.0972 42.25 84.5362 42.5276ZM82.3857 35.0051C81.853 35.0051 81.4252 34.8663 81.1022 34.5886C80.7792 34.311 80.6177 33.9171 80.6177 33.4071C80.6177 32.8858 80.7792 32.4891 81.1022 32.2171C81.4252 31.9451 81.853 31.8091 82.3857 31.8091C82.907 31.8091 83.3292 31.9451 83.6522 32.2171C83.9752 32.4891 84.1367 32.8858 84.1367 33.4071C84.1367 33.9171 83.9752 34.311 83.6522 34.5886C83.3292 34.8663 82.907 35.0051 82.3857 35.0051ZM80.7707 41.1676C81.2013 41.4113 81.7397 41.5331 82.3857 41.5331C83.009 41.5331 83.5133 41.4 83.8987 41.1336C84.284 40.8673 84.4767 40.5131 84.4767 40.0711C84.4767 39.7425 84.3463 39.462 84.0857 39.2296C83.825 38.9973 83.332 38.8528 82.6067 38.7961C82.0627 38.7621 81.581 38.7111 81.1617 38.6431C80.765 38.8585 80.493 39.0908 80.3457 39.3401C80.1983 39.5895 80.1247 39.8331 80.1247 40.0711C80.1247 40.5585 80.34 40.924 80.7707 41.1676ZM98.2476 38.4051C97.5733 38.9378 96.7374 39.2041 95.7401 39.2041C94.9128 39.2041 94.1789 39.02 93.5386 38.6516C92.8983 38.2833 92.3968 37.7705 92.0341 37.1131C91.6714 36.4558 91.4901 35.6908 91.4901 34.8181C91.4901 33.9341 91.6686 33.1578 92.0256 32.4891C92.3826 31.8205 92.8813 31.2991 93.5216 30.9251C94.1619 30.5511 94.9071 30.3641 95.7571 30.3641C96.5844 30.3641 97.3041 30.5483 97.9161 30.9166C98.5281 31.285 99.0041 31.7751 99.3441 32.3871C99.6841 32.9991 99.8541 33.6735 99.8541 34.4101C99.8541 34.5235 99.8513 34.6453 99.8456 34.7756C99.8399 34.906 99.8314 35.0505 99.8201 35.2091H93.2581C93.3148 36.0251 93.5839 36.6456 94.0656 37.0706C94.5473 37.4956 95.1054 37.7081 95.7401 37.7081C96.2501 37.7081 96.6779 37.592 97.0236 37.3596C97.3693 37.1273 97.6271 36.8128 97.7971 36.4161H99.5991C99.3724 37.2095 98.9219 37.8725 98.2476 38.4051ZM98.0521 33.9851H93.2921C93.3941 33.2711 93.6774 32.7356 94.1421 32.3786C94.6068 32.0216 95.1394 31.8431 95.7401 31.8431C96.3861 31.8431 96.9244 32.0358 97.3551 32.4211C97.7858 32.8065 98.0181 33.3278 98.0521 33.9851ZM109.486 34.2061H107.123V39.0001H105.321V27.1001H109.486C110.415 27.1001 111.186 27.256 111.798 27.5676C112.41 27.8793 112.866 28.3043 113.166 28.8426C113.466 29.381 113.617 29.9901 113.617 30.6701C113.617 31.3161 113.472 31.9083 113.183 32.4466C112.894 32.985 112.444 33.4128 111.832 33.7301C111.22 34.0475 110.438 34.2061 109.486 34.2061ZM109.401 32.7271H107.123V28.5791H109.401C110.251 28.5791 110.86 28.7633 111.228 29.1316C111.596 29.5 111.781 30.0128 111.781 30.6701C111.781 31.3048 111.596 31.8063 111.228 32.1746C110.86 32.543 110.251 32.7271 109.401 32.7271ZM116.758 26.7601V39.0001H114.956V26.7601H116.758ZM121.514 39.2041C122.251 39.2041 122.846 39.0455 123.299 38.7281C123.752 38.4108 124.098 38.0198 124.336 37.5551L124.489 39.0001H126.053V33.8151C126.053 32.7498 125.73 31.9083 125.084 31.2906C124.438 30.673 123.526 30.3641 122.347 30.3641C121.69 30.3641 121.086 30.4803 120.536 30.7126C119.987 30.945 119.533 31.2793 119.176 31.7156C118.819 32.152 118.613 32.6761 118.556 33.2881H120.358C120.437 32.8121 120.661 32.4523 121.029 32.2086C121.398 31.965 121.831 31.8431 122.33 31.8431C122.897 31.8431 123.358 32.0075 123.715 32.3361C124.072 32.6648 124.251 33.1578 124.251 33.8151V33.9681H122.041C120.862 33.9681 119.956 34.2061 119.321 34.6821C118.686 35.1581 118.369 35.8041 118.369 36.6201C118.369 37.0848 118.482 37.5126 118.709 37.9036C118.936 38.2946 119.281 38.6091 119.746 38.8471C120.211 39.0851 120.8 39.2041 121.514 39.2041ZM120.689 37.4106C120.979 37.6316 121.372 37.7421 121.871 37.7421C122.358 37.7421 122.769 37.626 123.104 37.3936C123.438 37.1613 123.698 36.8525 123.885 36.4671C124.072 36.0818 124.189 35.6568 124.234 35.1921H122.228C121.514 35.1921 121.007 35.3168 120.706 35.5661C120.406 35.8155 120.256 36.1271 120.256 36.5011C120.256 36.8865 120.4 37.1896 120.689 37.4106ZM130.401 42.7401L135.841 30.5681H133.937L131.234 36.8071L128.65 30.5681H126.695L130.027 38.3031H130.52L128.497 42.7401H130.401Z" fill="white"/>
<g clip-path="url(#clip0_3_663)">
<path fill-rule="evenodd" clip-rule="evenodd" d="M17.4639 15.1188L26.913 25.0147L17.5093 34.9968C17.2349 34.8143 17.0877 34.4182 17.0853 33.9064C17.0805 32.9257 17.0057 17.3573 17 16.1893C16.9974 15.629 17.1917 15.2871 17.4639 15.1188ZM30.0292 21.7072L18.5389 15.1323C18.4162 15.0619 18.2768 15.0191 18.138 15L27.304 24.5997L30.0292 21.7072ZM30.5397 27.9886L27.6973 25.0119L30.5369 21.9979L34.4472 24.235C35.4105 24.7859 34.9178 25.4752 34.4472 25.7454L30.5397 27.9886ZM18.2882 35C18.3683 34.9684 18.452 34.9281 18.5388 34.8783L30.0314 28.2804L27.3067 25.4269L18.2882 35Z" fill="white"/>
</g>
<defs>
<clipPath id="clip0_3_663">
<rect width="24" height="24" fill="white" transform="translate(14 13)"/>
</clipPath>
</defs>
</svg>
